<svg
    xmlns="http://www.w3.org/2000/svg"
    viewBox="0 0 64 64"
    width="64"
    height="64"
    fill="#000000"
>
    <defs>
        <linearGradient id="grad1" x1="0%" y1="0%" x2="100%" y2="100%">
            <stop offset="0%" style="stop-color:#32CD32;stop-opacity:1" />
            <stop offset="100%" style="stop-color:#006400;stop-opacity:1" />
        </linearGradient>
    </defs>
    <circle cx="32" cy="32" r="32" fill="url(#grad1)" />
    <path
        d="M45.1,10.9L28,14.9c-1.1,0.3-2,1.2-2.4,2.3c-0.3,1.1-0.3,2.3-0.1,3.5c0.1,0.8,0.1,1.5,0.1,2.3v19.2c-1.6-0.9-3.3-1.4-5.2-1.4c-5.5,0-10,4.5-10,10s4.5,10,10,10s10-4.5,10-10V27.3l15-4.2v12.4c-1.6-0.9-3.3-1.4-5.2-1.4c-5.5,0-10,4.5-10,10s4.5,10,10,10s10-4.5,10-10V13.6C48,11.5,46.7,10.2,45.1,10.9z"
        fill="#ffffff"
    />
</svg>
